<svg xmlns="http://www.w3.org/2000/svg" version="1.1" xmlns:xlink="http://www.w3.org/1999/xlink" xmlns:svgjs="http://svgjs.dev/svgjs" width="2000" height="378" viewBox="0 0 2000 378"><g transform="matrix(1,0,0,1,-1.2121212121212466,-0.34124704937784145)"><svg viewBox="0 0 396 75" data-background-color="#ffffff" preserveAspectRatio="xMidYMid meet" height="378" width="2000" xmlns="http://www.w3.org/2000/svg" xmlns:xlink="http://www.w3.org/1999/xlink"><g id="tight-bounds" transform="matrix(1,0,0,1,0.2400000000000091,0.0677077478924275)"><svg viewBox="0 0 395.52 74.86458450421517" height="74.86458450421517" width="395.52"><g><svg viewBox="0 0 395.52 74.86458450421517" height="74.86458450421517" width="395.52"><g><svg viewBox="0 0 395.52 74.86458450421517" height="74.86458450421517" width="395.52"><g><svg viewBox="0 0 395.52 74.86458450421517" height="74.86458450421517" width="395.52"><g id="textblocktransform"><svg viewBox="0 0 395.52 74.86458450421517" height="74.86458450421517" width="395.52" id="textblock"><g><svg viewBox="0 0 395.52 74.86458450421517" height="74.86458450421517" width="395.52"><g transform="matrix(1,0,0,1,0,0)"><svg width="395.52" viewBox="0.85 -36.5 249.08 47.15" height="74.86458450421517" data-palette-color="#000000"><path d="M29.85-35.5L29.85-31.5 17.6-31.5 17.6 0 13.1 0 13.1-31.5 0.85-31.5 0.85-35.5 29.85-35.5ZM40.25 0.5L40.25 0.5Q37.3 0.5 34.87-0.58 32.45-1.65 30.67-3.53 28.9-5.4 27.92-7.85 26.95-10.3 26.95-13.05L26.95-13.05Q26.95-16.75 28.65-19.8 30.35-22.85 33.37-24.7 36.4-26.55 40.3-26.55L40.3-26.55Q44.25-26.55 47.17-24.68 50.1-22.8 51.72-19.78 53.35-16.75 53.35-13.25L53.35-13.25Q53.35-12.75 53.32-12.28 53.3-11.8 53.25-11.55L53.25-11.55 31.6-11.55Q31.8-9 33.02-7.03 34.25-5.05 36.2-3.93 38.15-2.8 40.4-2.8L40.4-2.8Q42.8-2.8 44.92-4 47.05-5.2 47.85-7.15L47.85-7.15 51.65-6.1Q50.8-4.2 49.12-2.7 47.45-1.2 45.17-0.35 42.9 0.5 40.25 0.5ZM31.45-14.6L31.45-14.6 49.25-14.6Q49.05-17.15 47.8-19.1 46.55-21.05 44.6-22.15 42.65-23.25 40.3-23.25L40.3-23.25Q38-23.25 36.05-22.15 34.1-21.05 32.87-19.1 31.65-17.15 31.45-14.6ZM69.8 0.5L69.8 0.5Q66.85 0.5 64.42-0.58 62-1.65 60.22-3.55 58.45-5.45 57.47-7.9 56.5-10.35 56.5-13.1L56.5-13.1Q56.5-16.8 58.15-19.85 59.8-22.9 62.8-24.73 65.8-26.55 69.75-26.55L69.75-26.55Q73.6-26.55 76.47-24.83 79.35-23.1 80.75-20.2L80.75-20.2 76.45-18.85Q75.45-20.7 73.65-21.73 71.85-22.75 69.65-22.75L69.65-22.75Q67.25-22.75 65.27-21.5 63.3-20.25 62.15-18.07 61-15.9 61-13.1L61-13.1Q61-10.35 62.17-8.13 63.35-5.9 65.32-4.6 67.3-3.3 69.7-3.3L69.7-3.3Q71.25-3.3 72.67-3.85 74.1-4.4 75.17-5.33 76.25-6.25 76.65-7.35L76.65-7.35 80.95-6.05Q80.15-4.15 78.52-2.68 76.9-1.2 74.67-0.35 72.45 0.5 69.8 0.5ZM109.09 0L104.34 0 95.29-12.7 90.34-8.05 90.34 0 85.94 0 85.94-36.5 90.34-36.5 90.34-12.65 103.84-26.05 108.59-26.05 98.19-15.25 109.09 0ZM149.19-31.7L147.09-28.05Q146.49-28.75 145.49-29.4 144.49-30.05 143.24-30.58 141.99-31.1 140.51-31.43 139.04-31.75 137.44-31.75L137.44-31.75Q133.34-31.75 131.39-30.2 129.44-28.65 129.44-25.95L129.44-25.95Q129.44-24.05 130.44-22.95 131.44-21.85 133.51-21.15 135.59-20.45 138.79-19.7L138.79-19.7Q142.49-18.9 145.19-17.75 147.89-16.6 149.34-14.68 150.79-12.75 150.79-9.55L150.79-9.55Q150.79-7 149.81-5.13 148.84-3.25 147.09-2.02 145.34-0.8 142.99-0.23 140.64 0.35 137.89 0.35L137.89 0.35Q135.19 0.35 132.61-0.23 130.04-0.8 127.74-1.9 125.44-3 123.44-4.65L123.44-4.65 125.59-8.45Q126.39-7.6 127.66-6.78 128.94-5.95 130.56-5.25 132.19-4.55 134.09-4.13 135.99-3.7 137.99-3.7L137.99-3.7Q141.79-3.7 143.89-5.08 145.99-6.45 145.99-9.1L145.99-9.1Q145.99-11.1 144.81-12.3 143.64-13.5 141.34-14.3 139.04-15.1 135.74-15.9L135.74-15.9Q132.14-16.8 129.69-17.88 127.24-18.95 126.01-20.7 124.79-22.45 124.79-25.25L124.79-25.25Q124.79-28.65 126.44-31 128.09-33.35 130.99-34.55 133.89-35.75 137.54-35.75L137.54-35.75Q139.94-35.75 142.01-35.25 144.09-34.75 145.89-33.85 147.69-32.95 149.19-31.7L149.19-31.7ZM178.64-15.6L178.64 0 174.24 0 174.24-14.6Q174.24-18.6 172.81-20.6 171.39-22.6 168.74-22.6L168.74-22.6Q167.04-22.6 165.31-21.7 163.59-20.8 162.29-19.28 160.99-17.75 160.39-15.75L160.39-15.75 160.39 0 155.99 0 155.99-36.5 160.39-36.5 160.39-20.5Q161.94-23.3 164.61-24.93 167.29-26.55 170.39-26.55L170.39-26.55Q172.74-26.55 174.31-25.73 175.89-24.9 176.84-23.4 177.79-21.9 178.21-19.93 178.64-17.95 178.64-15.6L178.64-15.6ZM196.88 0.5L196.88 0.5Q193.93 0.5 191.53-0.58 189.13-1.65 187.38-3.53 185.63-5.4 184.68-7.85 183.73-10.3 183.73-13L183.73-13Q183.73-15.75 184.68-18.2 185.63-20.65 187.38-22.53 189.13-24.4 191.56-25.48 193.98-26.55 196.93-26.55L196.93-26.55Q199.83-26.55 202.23-25.48 204.63-24.4 206.41-22.53 208.18-20.65 209.13-18.2 210.08-15.75 210.08-13L210.08-13Q210.08-10.3 209.13-7.85 208.18-5.4 206.43-3.53 204.68-1.65 202.26-0.58 199.83 0.5 196.88 0.5ZM188.23-12.95L188.23-12.95Q188.23-10.25 189.41-8.05 190.58-5.85 192.53-4.58 194.48-3.3 196.88-3.3L196.88-3.3Q199.28-3.3 201.26-4.6 203.23-5.9 204.41-8.13 205.58-10.35 205.58-13.05L205.58-13.05Q205.58-15.75 204.41-17.95 203.23-20.15 201.26-21.45 199.28-22.75 196.88-22.75L196.88-22.75Q194.48-22.75 192.53-21.43 190.58-20.1 189.41-17.9 188.23-15.7 188.23-12.95ZM229.48 0.5L229.48 0.5Q226.28 0.5 223.78-1.1 221.28-2.7 219.83-5.15L219.83-5.15 219.83 10.65 215.43 10.65 215.43-26.1 219.33-26.1 219.33-21.2Q220.88-23.6 223.38-25.08 225.88-26.55 228.83-26.55L228.83-26.55Q231.53-26.55 233.78-25.45 236.03-24.35 237.68-22.45 239.33-20.55 240.26-18.13 241.18-15.7 241.18-13.05L241.18-13.05Q241.18-9.35 239.71-6.25 238.23-3.15 235.58-1.33 232.93 0.5 229.48 0.5ZM228.13-3.3L228.13-3.3Q230.08-3.3 231.66-4.13 233.23-4.95 234.36-6.33 235.48-7.7 236.08-9.45 236.68-11.2 236.68-13.05L236.68-13.05Q236.68-15 236.01-16.75 235.33-18.5 234.11-19.85 232.88-21.2 231.26-21.98 229.63-22.75 227.73-22.75L227.73-22.75Q226.53-22.75 225.26-22.3 223.98-21.85 222.83-21.03 221.68-20.2 220.88-19.15 220.08-18.1 219.83-16.9L219.83-16.9 219.83-9.45Q220.58-7.75 221.83-6.35 223.08-4.95 224.73-4.13 226.38-3.3 228.13-3.3ZM249.93 0L246.23 0 246.23-5.6 249.93-5.6 249.93 0Z" opacity="1" transform="matrix(1,0,0,1,0,0)" fill="#000000" class="wordmark-text-0" data-fill-palette-color="primary" id="text-0"></path></svg></g></svg></g></svg></g></svg></g></svg></g></svg></g><defs></defs></svg><rect width="395.52" height="74.86458450421517" fill="none" stroke="none" visibility="hidden"></rect></g></svg></g></svg>